%TF.GenerationSoftware,KiCad,Pcbnew,(5.1.9)-1*%
%TF.CreationDate,2021-01-26T09:39:54-05:00*%
%TF.ProjectId,PCB,5043422e-6b69-4636-9164-5f7063625858,rev?*%
%TF.SameCoordinates,Original*%
%TF.FileFunction,Soldermask,Top*%
%TF.FilePolarity,Negative*%
%FSLAX46Y46*%
G04 Gerber Fmt 4.6, Leading zero omitted, Abs format (unit mm)*
G04 Created by KiCad (PCBNEW (5.1.9)-1) date 2021-01-26 09:39:54*
%MOMM*%
%LPD*%
G01*
G04 APERTURE LIST*
%ADD10R,1.700000X1.700000*%
%ADD11C,1.727200*%
%ADD12O,1.727200X1.727200*%
%ADD13O,1.700000X1.700000*%
%ADD14C,4.064000*%
%ADD15O,1.727200X2.032000*%
G04 APERTURE END LIST*
D10*
%TO.C,J12*%
X140970000Y-110490000D03*
%TD*%
%TO.C,J11*%
X162560000Y-113030000D03*
%TD*%
%TO.C,J10*%
X158750000Y-99060000D03*
%TD*%
%TO.C,J9*%
X147320000Y-114300000D03*
%TD*%
%TO.C,J8*%
X193040000Y-105410000D03*
%TD*%
%TO.C,J7*%
X180340000Y-96520000D03*
%TD*%
D11*
%TO.C,P1*%
X197358000Y-114046000D03*
D12*
X199898000Y-114046000D03*
X197358000Y-111506000D03*
X199898000Y-111506000D03*
X197358000Y-108966000D03*
X199898000Y-108966000D03*
X197358000Y-106426000D03*
X199898000Y-106426000D03*
X197358000Y-103886000D03*
X199898000Y-103886000D03*
X197358000Y-101346000D03*
X199898000Y-101346000D03*
X197358000Y-98806000D03*
X199898000Y-98806000D03*
X197358000Y-96266000D03*
X199898000Y-96266000D03*
X197358000Y-93726000D03*
X199898000Y-93726000D03*
X197358000Y-91186000D03*
X199898000Y-91186000D03*
X197358000Y-88646000D03*
X199898000Y-88646000D03*
X197358000Y-86106000D03*
X199898000Y-86106000D03*
X197358000Y-83566000D03*
X199898000Y-83566000D03*
X197358000Y-81026000D03*
X199898000Y-81026000D03*
X197358000Y-78486000D03*
X199898000Y-78486000D03*
X197358000Y-75946000D03*
X199898000Y-75946000D03*
X197358000Y-73406000D03*
X199898000Y-73406000D03*
X197358000Y-70866000D03*
X199898000Y-70866000D03*
%TD*%
D13*
%TO.C,J6*%
X133350000Y-111760000D03*
X133350000Y-109220000D03*
X133350000Y-106680000D03*
D10*
X133350000Y-104140000D03*
%TD*%
D13*
%TO.C,J5*%
X121920000Y-116840000D03*
X121920000Y-114300000D03*
X121920000Y-111760000D03*
X121920000Y-109220000D03*
X121920000Y-106680000D03*
X121920000Y-104140000D03*
X121920000Y-101600000D03*
X121920000Y-99060000D03*
X121920000Y-96520000D03*
X121920000Y-93980000D03*
X121920000Y-91440000D03*
X121920000Y-88900000D03*
X121920000Y-86360000D03*
X121920000Y-83820000D03*
X121920000Y-81280000D03*
D10*
X121920000Y-78740000D03*
%TD*%
D13*
%TO.C,J4*%
X110490000Y-116840000D03*
X110490000Y-114300000D03*
X110490000Y-111760000D03*
X110490000Y-109220000D03*
X110490000Y-106680000D03*
X110490000Y-104140000D03*
X110490000Y-101600000D03*
X110490000Y-99060000D03*
X110490000Y-96520000D03*
X110490000Y-93980000D03*
X110490000Y-91440000D03*
X110490000Y-88900000D03*
X110490000Y-86360000D03*
X110490000Y-83820000D03*
X110490000Y-81280000D03*
D10*
X110490000Y-78740000D03*
%TD*%
D13*
%TO.C,J3*%
X133350000Y-86360000D03*
X133350000Y-83820000D03*
X133350000Y-81280000D03*
D10*
X133350000Y-78740000D03*
%TD*%
D13*
%TO.C,J2*%
X160020000Y-107950000D03*
X157480000Y-107950000D03*
X154940000Y-107950000D03*
X152400000Y-107950000D03*
X149860000Y-107950000D03*
D10*
X147320000Y-107950000D03*
%TD*%
D13*
%TO.C,J1*%
X187960000Y-88900000D03*
X185420000Y-88900000D03*
X182880000Y-88900000D03*
X180340000Y-88900000D03*
X177800000Y-88900000D03*
D10*
X175260000Y-88900000D03*
%TD*%
D14*
%TO.C,P13*%
X193548000Y-70866000D03*
%TD*%
D15*
%TO.C,P2*%
X131318000Y-119126000D03*
X133858000Y-119126000D03*
X136398000Y-119126000D03*
X138938000Y-119126000D03*
X141478000Y-119126000D03*
X144018000Y-119126000D03*
X146558000Y-119126000D03*
X149098000Y-119126000D03*
%TD*%
%TO.C,P3*%
X154178000Y-119126000D03*
X156718000Y-119126000D03*
X159258000Y-119126000D03*
X161798000Y-119126000D03*
X164338000Y-119126000D03*
X166878000Y-119126000D03*
X169418000Y-119126000D03*
X171958000Y-119126000D03*
%TD*%
%TO.C,P4*%
X177038000Y-119126000D03*
X179578000Y-119126000D03*
X182118000Y-119126000D03*
X184658000Y-119126000D03*
X187198000Y-119126000D03*
X189738000Y-119126000D03*
X192278000Y-119126000D03*
X194818000Y-119126000D03*
%TD*%
%TO.C,P5*%
X122174000Y-70866000D03*
X124714000Y-70866000D03*
X127254000Y-70866000D03*
X129794000Y-70866000D03*
X132334000Y-70866000D03*
X134874000Y-70866000D03*
X137414000Y-70866000D03*
X139954000Y-70866000D03*
X142494000Y-70866000D03*
X145034000Y-70866000D03*
%TD*%
%TO.C,P6*%
X149098000Y-70866000D03*
X151638000Y-70866000D03*
X154178000Y-70866000D03*
X156718000Y-70866000D03*
X159258000Y-70866000D03*
X161798000Y-70866000D03*
X164338000Y-70866000D03*
X166878000Y-70866000D03*
%TD*%
%TO.C,P7*%
X171958000Y-70866000D03*
X174498000Y-70866000D03*
X177038000Y-70866000D03*
X179578000Y-70866000D03*
X182118000Y-70866000D03*
X184658000Y-70866000D03*
X187198000Y-70866000D03*
X189738000Y-70866000D03*
%TD*%
D14*
%TO.C,P10*%
X199898000Y-119126000D03*
%TD*%
M02*
